solid link_5 - Copy
facet normal 6.735557292e-16 0 -1
  outer loop
    vertex   -0.09380024672 0.04296050221 -0.05349978805
    vertex   -0.09380024672 0.04299020395 -0.05349978805
    vertex   -0.09377020597 0.04298030213 -0.05349978805
  endloop
endfacet
facet normal 6.735557292e-16 0 -1
  outer loop
    vertex   -0.09380024672 0.04299760237 -0.05349978805
    vertex   -0.09379023314 0.04299509898 -0.05349978805
    vertex   -0.09380024672 0.04299020395 -0.05349978805
  endloop
endfacet
facet normal 6.735557292e-16 0 -1
  outer loop
    vertex   -0.09380024672 0.04236730188 -0.05349978805
    vertex   -0.09380024672 0.04284190014 -0.05349978805
    vertex   -0.09329026937 0.04268370196 -0.05349978805
  endloop
endfacet
facet normal 6.735557292e-16 0 -1
  outer loop
    vertex   -0.09380024672 0.03287510201 -0.05349978805
    vertex   -0.09380024672 0.04046880081 -0.05349978805
    vertex   -0.0856102109 0.03793760017 -0.05349978805
  endloop
endfacet
facet normal 6.735557292e-16 0 -1
  outer loop
    vertex   -0.09380024672 0.04236730188 -0.05349978805
    vertex   -0.09175020456 0.04173450172 -0.05349978805
    vertex   -0.09380024672 0.04046880081 -0.05349978805
  endloop
endfacet
facet normal 6.735557292e-16 0 -1
  outer loop
    vertex   -0.09380024672 0.04296050221 -0.05349978805
    vertex   -0.09367018938 0.04292100295 -0.05349978805
    vertex   -0.09380024672 0.04284190014 -0.05349978805
  endloop
endfacet
facet normal 6.735557292e-16 0 -1
  outer loop
    vertex   -0.09380024672 -0.02787490189 -0.05349978805
    vertex   -0.09380024672 0.002500080271 -0.05349978805
    vertex   -0.06105023623 -0.03799990192 -0.05349978805
  endloop
endfacet
facet normal 6.735557292e-16 0 -1
  outer loop
    vertex   -0.09380024672 -0.03736710176 -0.05349978805
    vertex   -0.09380024672 -0.03546870127 -0.05349978805
    vertex   -0.09175020456 -0.03799990192 -0.05349978805
  endloop
endfacet
facet normal 6.735557292e-16 0 -1
  outer loop
    vertex   -0.09380024672 -0.02787490189 -0.05349978805
    vertex   -0.0856102109 -0.03799990192 -0.05349978805
    vertex   -0.09380024672 -0.03546870127 -0.05349978805
  endloop
endfacet
facet normal 6.735557292e-16 0 -1
  outer loop
    vertex   -0.09380024672 -0.03796040267 -0.05349978805
    vertex   -0.09380024672 -0.03784170374 -0.05349978805
    vertex   -0.09367018938 -0.03799990192 -0.05349978805
  endloop
endfacet
facet normal 6.735557292e-16 0 -1
  outer loop
    vertex   -0.09380024672 -0.03799739853 -0.05349978805
    vertex   -0.09380024672 -0.03799000382 -0.05349978805
    vertex   -0.09379023314 -0.03799990192 -0.05349978805
  endloop
endfacet
facet normal 6.735557292e-16 0 -1
  outer loop
    vertex   -0.09380024672 -0.03796040267 -0.05349978805
    vertex   -0.09377020597 -0.03799990192 -0.05349978805
    vertex   -0.09380024672 -0.03799000382 -0.05349978805
  endloop
endfacet
facet normal 6.735557292e-16 0 -1
  outer loop
    vertex   -0.09380024672 -0.03736710176 -0.05349978805
    vertex   -0.09329026937 -0.03799990192 -0.05349978805
    vertex   -0.09380024672 -0.03784170374 -0.05349978805
  endloop
endfacet
facet normal 6.735557292e-16 0 -1
  outer loop
    vertex   -0.09380024672 0.03287510201 -0.05349978805
    vertex   -0.06105023623 0.02275010012 -0.05349978805
    vertex   -0.09380024672 0.002500080271 -0.05349978805
  endloop
endfacet
facet normal 6.735557292e-16 0 -1
  outer loop
    vertex   -0.09380024672 0.04299020395 -0.05349978805
    vertex   -0.09379023314 0.04299509898 -0.05349978805
    vertex   -0.09377020597 0.04298030213 -0.05349978805
  endloop
endfacet
facet normal 6.735557292e-16 0 -1
  outer loop
    vertex   -0.09367018938 0.04292100295 -0.05349978805
    vertex   -0.09380024672 0.04296050221 -0.05349978805
    vertex   -0.09377020597 0.04298030213 -0.05349978805
  endloop
endfacet
facet normal 6.735557292e-16 0 -1
  outer loop
    vertex   -0.09367018938 0.04292100295 -0.05349978805
    vertex   -0.09329026937 0.04268370196 -0.05349978805
    vertex   -0.09380024672 0.04284190014 -0.05349978805
  endloop
endfacet
facet normal 6.735557292e-16 0 -1
  outer loop
    vertex   -0.09329026937 0.04268370196 -0.05349978805
    vertex   -0.09175020456 0.04173450172 -0.05349978805
    vertex   -0.09380024672 0.04236730188 -0.05349978805
  endloop
endfacet
facet normal 6.735557292e-16 0 -1
  outer loop
    vertex   -0.06105023623 -0.03799990192 -0.05349978805
    vertex   -0.09380024672 0.002500080271 -0.05349978805
    vertex   -0.06105023623 0.02275010012 -0.05349978805
  endloop
endfacet
facet normal 6.735557292e-16 0 -1
  outer loop
    vertex   -0.06105023623 0.02275010012 -0.05349978805
    vertex   -0.09380024672 0.03287510201 -0.05349978805
    vertex   -0.0856102109 0.03793760017 -0.05349978805
  endloop
endfacet
facet normal 6.735557292e-16 0 -1
  outer loop
    vertex   -0.09380024672 0.04046880081 -0.05349978805
    vertex   -0.09175020456 0.04173450172 -0.05349978805
    vertex   -0.0856102109 0.03793760017 -0.05349978805
  endloop
endfacet
facet normal 6.735557292e-16 0 -1
  outer loop
    vertex   -0.0119202733 -0.03799990192 -0.05349978805
    vertex   -0.06105023623 0.02275010012 -0.05349978805
    vertex   0.03719979525 -0.03799990192 -0.05349978805
  endloop
endfacet
facet normal 6.735557292e-16 0 -1
  outer loop
    vertex   -0.09380024672 -0.03799739853 -0.05349978805
    vertex   -0.09379023314 -0.03799990192 -0.05349978805
    vertex   -0.09380024672 -0.03799990192 -0.05349978805
  endloop
endfacet
facet normal 6.735557292e-16 0 -1
  outer loop
    vertex   -0.09380024672 -0.03796040267 -0.05349978805
    vertex   -0.09367018938 -0.03799990192 -0.05349978805
    vertex   -0.09377020597 -0.03799990192 -0.05349978805
  endloop
endfacet
facet normal 6.735557292e-16 0 -1
  outer loop
    vertex   -0.09377020597 -0.03799990192 -0.05349978805
    vertex   -0.09379023314 -0.03799990192 -0.05349978805
    vertex   -0.09380024672 -0.03799000382 -0.05349978805
  endloop
endfacet
facet normal 6.735557292e-16 0 -1
  outer loop
    vertex   -0.0119202733 -0.03799990192 -0.05349978805
    vertex   -0.06105023623 -0.03799990192 -0.05349978805
    vertex   -0.06105023623 0.02275010012 -0.05349978805
  endloop
endfacet
facet normal 6.735557292e-16 0 -1
  outer loop
    vertex   -0.09175020456 -0.03799990192 -0.05349978805
    vertex   -0.09329026937 -0.03799990192 -0.05349978805
    vertex   -0.09380024672 -0.03736710176 -0.05349978805
  endloop
endfacet
facet normal 6.735557292e-16 0 -1
  outer loop
    vertex   -0.09367018938 -0.03799990192 -0.05349978805
    vertex   -0.09380024672 -0.03784170374 -0.05349978805
    vertex   -0.09329026937 -0.03799990192 -0.05349978805
  endloop
endfacet
facet normal 6.735557292e-16 0 -1
  outer loop
    vertex   -0.0856102109 -0.03799990192 -0.05349978805
    vertex   -0.09380024672 -0.02787490189 -0.05349978805
    vertex   -0.06105023623 -0.03799990192 -0.05349978805
  endloop
endfacet
facet normal 6.735557292e-16 0 -1
  outer loop
    vertex   -0.09175020456 -0.03799990192 -0.05349978805
    vertex   -0.09380024672 -0.03546870127 -0.05349978805
    vertex   -0.0856102109 -0.03799990192 -0.05349978805
  endloop
endfacet
facet normal 6.735557292e-16 0 -1
  outer loop
    vertex   -0.09379023314 0.04299509898 -0.05349978805
    vertex   -0.09380024672 0.04299760237 -0.05349978805
    vertex   -0.09380024672 0.04299880192 -0.05349978805
  endloop
endfacet
facet normal 6.735557292e-16 0 -1
  outer loop
    vertex   -0.09378021955 0.04300010204 -0.05349978805
    vertex   -0.09374016523 0.04300010204 -0.05349978805
    vertex   -0.09377020597 0.04298030213 -0.05349978805
  endloop
endfacet
facet normal 6.735557292e-16 0 -1
  outer loop
    vertex   -0.09380024672 0.04300010204 -0.05349978805
    vertex   -0.09378021955 0.04300010204 -0.05349978805
    vertex   -0.09379023314 0.04299509898 -0.05349978805
  endloop
endfacet
facet normal 6.735557292e-16 0 -1
  outer loop
    vertex   -0.08971017599 0.04300010204 -0.05349978805
    vertex   -0.07742017508 0.04300010204 -0.05349978805
    vertex   -0.0856102109 0.03793760017 -0.05349978805
  endloop
endfacet
facet normal 6.735557292e-16 0 -1
  outer loop
    vertex   -0.09354025126 0.04300010204 -0.05349978805
    vertex   -0.09278017282 0.04300010204 -0.05349978805
    vertex   -0.09329026937 0.04268370196 -0.05349978805
  endloop
endfacet
facet normal 6.735557292e-16 0 -1
  outer loop
    vertex   -0.09278017282 0.04300010204 -0.05349978805
    vertex   -0.08971017599 0.04300010204 -0.05349978805
    vertex   -0.09175020456 0.04173450172 -0.05349978805
  endloop
endfacet
facet normal 6.735557292e-16 0 -1
  outer loop
    vertex   -0.07742017508 0.04300010204 -0.05349978805
    vertex   -0.02830022573 0.04300010204 -0.05349978805
    vertex   -0.06105023623 0.02275010012 -0.05349978805
  endloop
endfacet
facet normal 6.735557292e-16 0 -1
  outer loop
    vertex   -0.09374016523 0.04300010204 -0.05349978805
    vertex   -0.09354025126 0.04300010204 -0.05349978805
    vertex   -0.09367018938 0.04292100295 -0.05349978805
  endloop
endfacet
facet normal 6.735557292e-16 0 -1
  outer loop
    vertex   -0.09380024672 0.04299880192 -0.05349978805
    vertex   -0.09380024672 0.04300010204 -0.05349978805
    vertex   -0.09379023314 0.04299509898 -0.05349978805
  endloop
endfacet
facet normal 6.735557292e-16 0 -1
  outer loop
    vertex   -0.09377020597 0.04298030213 -0.05349978805
    vertex   -0.09374016523 0.04300010204 -0.05349978805
    vertex   -0.09367018938 0.04292100295 -0.05349978805
  endloop
endfacet
facet normal 6.735557292e-16 0 -1
  outer loop
    vertex   -0.09378021955 0.04300010204 -0.05349978805
    vertex   -0.09377020597 0.04298030213 -0.05349978805
    vertex   -0.09379023314 0.04299509898 -0.05349978805
  endloop
endfacet
facet normal 6.735557292e-16 0 -1
  outer loop
    vertex   -0.09329026937 0.04268370196 -0.05349978805
    vertex   -0.09278017282 0.04300010204 -0.05349978805
    vertex   -0.09175020456 0.04173450172 -0.05349978805
  endloop
endfacet
facet normal 6.735557292e-16 0 -1
  outer loop
    vertex   -0.07742017508 0.04300010204 -0.05349978805
    vertex   -0.06105023623 0.02275010012 -0.05349978805
    vertex   -0.0856102109 0.03793760017 -0.05349978805
  endloop
endfacet
facet normal 6.735557292e-16 0 -1
  outer loop
    vertex   -0.06105023623 0.02275010012 -0.05349978805
    vertex   -0.02830022573 0.04300010204 -0.05349978805
    vertex   -0.0119202733 -0.00762489019 -0.05349978805
  endloop
endfacet
facet normal 6.735557292e-16 0 -1
  outer loop
    vertex   -0.09367018938 0.04292100295 -0.05349978805
    vertex   -0.09354025126 0.04300010204 -0.05349978805
    vertex   -0.09329026937 0.04268370196 -0.05349978805
  endloop
endfacet
facet normal 6.735557292e-16 0 -1
  outer loop
    vertex   -0.09175020456 0.04173450172 -0.05349978805
    vertex   -0.08971017599 0.04300010204 -0.05349978805
    vertex   -0.0856102109 0.03793760017 -0.05349978805
  endloop
endfacet
facet normal 6.735557292e-16 0 -1
  outer loop
    vertex   -0.02830022573 0.04300010204 -0.05349978805
    vertex   0.03719979525 0.02275010012 -0.05349978805
    vertex   -0.0119202733 -0.00762489019 -0.05349978805
  endloop
endfacet
facet normal 6.735557292e-16 0 -1
  outer loop
    vertex   0.03719979525 0.03793760017 -0.05349978805
    vertex   0.02082973719 0.04300010204 -0.05349978805
    vertex   0.03310984373 0.04300010204 -0.05349978805
  endloop
endfacet
facet normal 6.735557292e-16 0 -1
  outer loop
    vertex   0.03693979979 0.04300010204 -0.05349978805
    vertex   0.03719979525 0.04268370196 -0.05349978805
    vertex   0.03617984056 0.04300010204 -0.05349978805
  endloop
endfacet
facet normal 6.735557292e-16 0 -1
  outer loop
    vertex   0.03719979525 0.04173450172 -0.05349978805
    vertex   0.03310984373 0.04300010204 -0.05349978805
    vertex   0.03617984056 0.04300010204 -0.05349978805
  endloop
endfacet
facet normal 6.735557292e-16 0 -1
  outer loop
    vertex   0.03719979525 0.04298030213 -0.05349978805
    vertex   0.03713983297 0.04300010204 -0.05349978805
    vertex   0.03717988729 0.04300010204 -0.05349978805
  endloop
endfacet
facet normal 6.735557292e-16 0 -1
  outer loop
    vertex   0.03717988729 0.04300010204 -0.05349978805
    vertex   0.03719979525 0.04300010204 -0.05349978805
    vertex   0.03719979525 0.04299520329 -0.05349978805
  endloop
endfacet
facet normal 6.735557292e-16 0 -1
  outer loop
    vertex   0.03693979979 0.04300010204 -0.05349978805
    vertex   0.03713983297 0.04300010204 -0.05349978805
    vertex   0.03719979525 0.04292100295 -0.05349978805
  endloop
endfacet
facet normal 6.735557292e-16 0 -1
  outer loop
    vertex   0.03719979525 0.04298030213 -0.05349978805
    vertex   0.03719979525 0.04292100295 -0.05349978805
    vertex   0.03713983297 0.04300010204 -0.05349978805
  endloop
endfacet
facet normal 6.735557292e-16 0 -1
  outer loop
    vertex   0.03719979525 0.04299520329 -0.05349978805
    vertex   0.03719979525 0.04298030213 -0.05349978805
    vertex   0.03717988729 0.04300010204 -0.05349978805
  endloop
endfacet
facet normal 6.735557292e-16 0 -1
  outer loop
    vertex   0.03719979525 0.04268370196 -0.05349978805
    vertex   0.03719979525 0.04173450172 -0.05349978805
    vertex   0.03617984056 0.04300010204 -0.05349978805
  endloop
endfacet
facet normal 6.735557292e-16 0 -1
  outer loop
    vertex   0.03719979525 0.03793760017 -0.05349978805
    vertex   0.03719979525 0.02275010012 -0.05349978805
    vertex   0.02082973719 0.04300010204 -0.05349978805
  endloop
endfacet
facet normal 6.735557292e-16 0 -1
  outer loop
    vertex   0.03719979525 -0.03799990192 -0.05349978805
    vertex   -0.0119202733 -0.00762489019 -0.05349978805
    vertex   0.03719979525 0.02275010012 -0.05349978805
  endloop
endfacet
facet normal 6.735557292e-16 0 -1
  outer loop
    vertex   0.03719979525 0.04173450172 -0.05349978805
    vertex   0.03719979525 0.03793760017 -0.05349978805
    vertex   0.03310984373 0.04300010204 -0.05349978805
  endloop
endfacet
facet normal 6.735557292e-16 0 -1
  outer loop
    vertex   0.03719979525 0.04292100295 -0.05349978805
    vertex   0.03719979525 0.04268370196 -0.05349978805
    vertex   0.03693979979 0.04300010204 -0.05349978805
  endloop
endfacet
facet normal 6.735557292e-16 0 -1
  outer loop
    vertex   0.03719979525 0.02275010012 -0.05349978805
    vertex   -0.02830022573 0.04300010204 -0.05349978805
    vertex   0.02082973719 0.04300010204 -0.05349978805
  endloop
endfacet
facet normal -6.735557292e-16 0 1
  outer loop
    vertex   0.03719979525 0.04299520329 0.04350021482
    vertex   0.03719979525 0.0430001989 0.04350021482
    vertex   0.03717988729 0.0430001989 0.04350021482
  endloop
endfacet
facet normal -6.735557292e-16 0 1
  outer loop
    vertex   0.03719979525 0.04292110354 0.04350021482
    vertex   0.03713983297 0.0430001989 0.04350021482
    vertex   0.03693979979 0.0430001989 0.04350021482
  endloop
endfacet
facet normal -6.735557292e-16 0 1
  outer loop
    vertex   0.03719979525 0.04268370196 0.04350021482
    vertex   0.03693979979 0.0430001989 0.04350021482
    vertex   0.03617984056 0.0430001989 0.04350021482
  endloop
endfacet
facet normal -6.735557292e-16 0 1
  outer loop
    vertex   0.03719979525 0.04298040271 0.04350021482
    vertex   0.03717988729 0.0430001989 0.04350021482
    vertex   0.03713983297 0.0430001989 0.04350021482
  endloop
endfacet
facet normal -6.735557292e-16 0 1
  outer loop
    vertex   0.03719979525 0.04173450172 0.04350021482
    vertex   0.03617984056 0.0430001989 0.04350021482
    vertex   0.03310984373 0.0430001989 0.04350021482
  endloop
endfacet
facet normal -6.735557292e-16 0 1
  outer loop
    vertex   0.03719979525 0.04298040271 0.04350021482
    vertex   0.03719979525 0.04299520329 0.04350021482
    vertex   0.03717988729 0.0430001989 0.04350021482
  endloop
endfacet
facet normal -6.735557292e-16 0 1
  outer loop
    vertex   0.03719979525 0.04268370196 0.04350021482
    vertex   0.03719979525 0.04292110354 0.04350021482
    vertex   0.03693979979 0.0430001989 0.04350021482
  endloop
endfacet
facet normal -6.735557292e-16 0 1
  outer loop
    vertex   0.03719979525 0.04298040271 0.04350021482
    vertex   0.03713983297 0.0430001989 0.04350021482
    vertex   0.03719979525 0.04292110354 0.04350021482
  endloop
endfacet
facet normal -6.735557292e-16 0 1
  outer loop
    vertex   0.03719979525 0.03793770075 0.04350021482
    vertex   0.03719979525 0.04173450172 0.04350021482
    vertex   0.03310984373 0.0430001989 0.04350021482
  endloop
endfacet
facet normal -6.735557292e-16 0 1
  outer loop
    vertex   -0.06105023623 0.02275010012 0.04350021482
    vertex   0.03719979525 -0.007624840364 0.04350021482
    vertex   0.03719979525 0.0227502007 0.04350021482
  endloop
endfacet
facet normal -6.735557292e-16 0 1
  outer loop
    vertex   -0.06105023623 0.02275010012 0.04350021482
    vertex   0.03719979525 -0.03799980506 0.04350021482
    vertex   0.03719979525 -0.007624840364 0.04350021482
  endloop
endfacet
facet normal -6.735557292e-16 0 1
  outer loop
    vertex   0.03719979525 0.0227502007 0.04350021482
    vertex   0.03719979525 0.03793770075 0.04350021482
    vertex   0.02082973719 0.04300010204 0.04350021482
  endloop
endfacet
facet normal -6.735557292e-16 0 1
  outer loop
    vertex   0.03719979525 0.04268370196 0.04350021482
    vertex   0.03617984056 0.0430001989 0.04350021482
    vertex   0.03719979525 0.04173450172 0.04350021482
  endloop
endfacet
facet normal -6.735557292e-16 0 1
  outer loop
    vertex   0.03310984373 0.0430001989 0.04350021482
    vertex   0.02082973719 0.04300010204 0.04350021482
    vertex   0.03719979525 0.03793770075 0.04350021482
  endloop
endfacet
facet normal -6.735557292e-16 0 1
  outer loop
    vertex   -0.02830022573 0.04300010204 0.04350021482
    vertex   -0.06105023623 0.02275010012 0.04350021482
    vertex   0.03719979525 0.0227502007 0.04350021482
  endloop
endfacet
facet normal -6.735557292e-16 0 1
  outer loop
    vertex   -0.02830022573 0.04300010204 0.04350021482
    vertex   -0.07742017508 0.04300010204 0.04350021482
    vertex   -0.06105023623 0.02275010012 0.04350021482
  endloop
endfacet
facet normal -6.735557292e-16 0 1
  outer loop
    vertex   -0.0856102109 0.03793760017 0.04350021482
    vertex   -0.07742017508 0.04300010204 0.04350021482
    vertex   -0.08971017599 0.04300010204 0.04350021482
  endloop
endfacet
facet normal -6.735557292e-16 0 1
  outer loop
    vertex   -0.09278017282 0.04300010204 0.04350021482
    vertex   -0.09354025126 0.04300010204 0.04350021482
    vertex   -0.09329026937 0.04268370196 0.04350021482
  endloop
endfacet
facet normal -6.735557292e-16 0 1
  outer loop
    vertex   -0.09374016523 0.04300010204 0.04350021482
    vertex   -0.09378021955 0.04300010204 0.04350021482
    vertex   -0.09377020597 0.04298030213 0.04350021482
  endloop
endfacet
facet normal -6.735557292e-16 0 1
  outer loop
    vertex   -0.09378021955 0.04300010204 0.04350021482
    vertex   -0.09380024672 0.04300010204 0.04350021482
    vertex   -0.09379023314 0.04299520329 0.04350021482
  endloop
endfacet
facet normal -6.735557292e-16 0 1
  outer loop
    vertex   -0.09354025126 0.04300010204 0.04350021482
    vertex   -0.09374016523 0.04300010204 0.04350021482
    vertex   -0.09367018938 0.04292100295 0.04350021482
  endloop
endfacet
facet normal -6.735557292e-16 0 1
  outer loop
    vertex   -0.08971017599 0.04300010204 0.04350021482
    vertex   -0.09278017282 0.04300010204 0.04350021482
    vertex   -0.09175020456 0.04173450172 0.04350021482
  endloop
endfacet
facet normal -6.735557292e-16 0 1
  outer loop
    vertex   -0.09329026937 0.04268370196 0.04350021482
    vertex   -0.09175020456 0.04173450172 0.04350021482
    vertex   -0.09278017282 0.04300010204 0.04350021482
  endloop
endfacet
facet normal -6.735557292e-16 0 1
  outer loop
    vertex   -0.06105023623 0.02275010012 0.04350021482
    vertex   -0.07742017508 0.04300010204 0.04350021482
    vertex   -0.0856102109 0.03793760017 0.04350021482
  endloop
endfacet
facet normal -6.735557292e-16 0 1
  outer loop
    vertex   -0.09175020456 0.04173450172 0.04350021482
    vertex   -0.0856102109 0.03793760017 0.04350021482
    vertex   -0.08971017599 0.04300010204 0.04350021482
  endloop
endfacet
facet normal -6.735557292e-16 0 1
  outer loop
    vertex   -0.09380024672 0.0429989025 0.04350021482
    vertex   -0.09379023314 0.04299520329 0.04350021482
    vertex   -0.09380024672 0.04300010204 0.04350021482
  endloop
endfacet
facet normal -6.735557292e-16 0 1
  outer loop
    vertex   -0.09367018938 0.04292100295 0.04350021482
    vertex   -0.09374016523 0.04300010204 0.04350021482
    vertex   -0.09377020597 0.04298030213 0.04350021482
  endloop
endfacet
facet normal -6.735557292e-16 0 1
  outer loop
    vertex   -0.09377020597 0.04298030213 0.04350021482
    vertex   -0.09378021955 0.04300010204 0.04350021482
    vertex   -0.09379023314 0.04299520329 0.04350021482
  endloop
endfacet
facet normal -6.735557292e-16 0 1
  outer loop
    vertex   -0.09367018938 0.04292100295 0.04350021482
    vertex   -0.09329026937 0.04268370196 0.04350021482
    vertex   -0.09354025126 0.04300010204 0.04350021482
  endloop
endfacet
facet normal -6.735557292e-16 0 1
  outer loop
    vertex   -0.02830022573 0.04300010204 0.04350021482
    vertex   0.03719979525 0.0227502007 0.04350021482
    vertex   0.02082973719 0.04300010204 0.04350021482
  endloop
endfacet
facet normal -6.735557292e-16 0 1
  outer loop
    vertex   -0.09175020456 0.04173450172 0.04350021482
    vertex   -0.09380024672 0.0404689014 0.04350021482
    vertex   -0.0856102109 0.03793760017 0.04350021482
  endloop
endfacet
facet normal -6.735557292e-16 0 1
  outer loop
    vertex   -0.0119202733 -0.007624860387 0.04350021482
    vertex   -0.06105023623 0.02275010012 0.04350021482
    vertex   -0.09380024672 0.002500120085 0.04350021482
  endloop
endfacet
facet normal -6.735557292e-16 0 1
  outer loop
    vertex   -0.0856102109 0.03793760017 0.04350021482
    vertex   -0.09380024672 0.03287510201 0.04350021482
    vertex   -0.06105023623 0.02275010012 0.04350021482
  endloop
endfacet
facet normal -6.735557292e-16 0 1
  outer loop
    vertex   -0.09379023314 0.04299520329 0.04350021482
    vertex   -0.09380024672 0.04299020395 0.04350021482
    vertex   -0.09377020597 0.04298030213 0.04350021482
  endloop
endfacet
facet normal -6.735557292e-16 0 1
  outer loop
    vertex   -0.09380024672 0.04296060279 0.04350021482
    vertex   -0.09367018938 0.04292100295 0.04350021482
    vertex   -0.09377020597 0.04298030213 0.04350021482
  endloop
endfacet
facet normal -6.735557292e-16 0 1
  outer loop
    vertex   -0.09175020456 0.04173450172 0.04350021482
    vertex   -0.09329026937 0.04268370196 0.04350021482
    vertex   -0.09380024672 0.04236730188 0.04350021482
  endloop
endfacet
facet normal -6.735557292e-16 0 1
  outer loop
    vertex   -0.09367018938 0.04292100295 0.04350021482
    vertex   -0.09380024672 0.04284190014 0.04350021482
    vertex   -0.09329026937 0.04268370196 0.04350021482
  endloop
endfacet
facet normal -6.735557292e-16 0 1
  outer loop
    vertex   0.03719979525 -0.03799980506 0.04350021482
    vertex   -0.0119202733 -0.007624860387 0.04350021482
    vertex   -0.06105023623 -0.03799990192 0.04350021482
  endloop
endfacet
facet normal -6.735557292e-16 0 1
  outer loop
    vertex   -0.09380024672 0.002500120085 0.04350021482
    vertex   -0.06105023623 -0.03799990192 0.04350021482
    vertex   -0.0119202733 -0.007624860387 0.04350021482
  endloop
endfacet
facet normal -6.735557292e-16 0 1
  outer loop
    vertex   -0.09380024672 -0.02787490189 0.04350021482
    vertex   -0.0856102109 -0.03799990192 0.04350021482
    vertex   -0.06105023623 -0.03799990192 0.04350021482
  endloop
endfacet
facet normal -6.735557292e-16 0 1
  outer loop
    vertex   -0.09175020456 -0.03799990192 0.04350021482
    vertex   -0.0856102109 -0.03799990192 0.04350021482
    vertex   -0.09380024672 -0.03546860442 0.04350021482
  endloop
endfacet
facet normal -6.735557292e-16 0 1
  outer loop
    vertex   -0.09367018938 -0.03799990192 0.04350021482
    vertex   -0.09329026937 -0.03799990192 0.04350021482
    vertex   -0.09380024672 -0.03784170374 0.04350021482
  endloop
endfacet
facet normal -6.735557292e-16 0 1
  outer loop
    vertex   -0.09377020597 -0.03799990192 0.04350021482
    vertex   -0.09367018938 -0.03799990192 0.04350021482
    vertex   -0.09380024672 -0.03796030208 0.04350021482
  endloop
endfacet
facet normal -6.735557292e-16 0 1
  outer loop
    vertex   -0.09175020456 -0.03799990192 0.04350021482
    vertex   -0.09380024672 -0.03736710176 0.04350021482
    vertex   -0.09329026937 -0.03799990192 0.04350021482
  endloop
endfacet
facet normal -6.735557292e-16 0 1
  outer loop
    vertex   -0.09377020597 -0.03799990192 0.04350021482
    vertex   -0.09380024672 -0.03799000382 0.04350021482
    vertex   -0.09379023314 -0.03799990192 0.04350021482
  endloop
endfacet
facet normal -6.735557292e-16 0 1
  outer loop
    vertex   -0.09379023314 0.04299520329 0.04350021482
    vertex   -0.09380024672 0.0429989025 0.04350021482
    vertex   -0.09380024672 0.04299760237 0.04350021482
  endloop
endfacet
facet normal -6.735557292e-16 0 1
  outer loop
    vertex   -0.09380024672 0.04299020395 0.04350021482
    vertex   -0.09379023314 0.04299520329 0.04350021482
    vertex   -0.09380024672 0.04299760237 0.04350021482
  endloop
endfacet
facet normal -6.735557292e-16 0 1
  outer loop
    vertex   -0.09380024672 0.04284190014 0.04350021482
    vertex   -0.09367018938 0.04292100295 0.04350021482
    vertex   -0.09380024672 0.04296060279 0.04350021482
  endloop
endfacet
facet normal -6.735557292e-16 0 1
  outer loop
    vertex   -0.09380024672 0.04296060279 0.04350021482
    vertex   -0.09377020597 0.04298030213 0.04350021482
    vertex   -0.09380024672 0.04299020395 0.04350021482
  endloop
endfacet
facet normal -6.735557292e-16 0 1
  outer loop
    vertex   -0.09380024672 0.0404689014 0.04350021482
    vertex   -0.09175020456 0.04173450172 0.04350021482
    vertex   -0.09380024672 0.04236730188 0.04350021482
  endloop
endfacet
facet normal -6.735557292e-16 0 1
  outer loop
    vertex   -0.09380024672 0.002500120085 0.04350021482
    vertex   -0.06105023623 0.02275010012 0.04350021482
    vertex   -0.09380024672 0.03287510201 0.04350021482
  endloop
endfacet
facet normal -6.735557292e-16 0 1
  outer loop
    vertex   -0.09380024672 -0.02787490189 0.04350021482
    vertex   -0.06105023623 -0.03799990192 0.04350021482
    vertex   -0.09380024672 0.002500120085 0.04350021482
  endloop
endfacet
facet normal -6.735557292e-16 0 1
  outer loop
    vertex   -0.09380024672 0.03287510201 0.04350021482
    vertex   -0.0856102109 0.03793760017 0.04350021482
    vertex   -0.09380024672 0.0404689014 0.04350021482
  endloop
endfacet
facet normal -6.735557292e-16 0 1
  outer loop
    vertex   -0.09380024672 0.04236730188 0.04350021482
    vertex   -0.09329026937 0.04268370196 0.04350021482
    vertex   -0.09380024672 0.04284190014 0.04350021482
  endloop
endfacet
facet normal -6.735557292e-16 0 1
  outer loop
    vertex   -0.09380024672 -0.03736710176 0.04350021482
    vertex   -0.09175020456 -0.03799990192 0.04350021482
    vertex   -0.09380024672 -0.03546860442 0.04350021482
  endloop
endfacet
facet normal -6.735557292e-16 0 1
  outer loop
    vertex   -0.09380024672 -0.03784170374 0.04350021482
    vertex   -0.09380024672 -0.03796030208 0.04350021482
    vertex   -0.09367018938 -0.03799990192 0.04350021482
  endloop
endfacet
facet normal -6.735557292e-16 0 1
  outer loop
    vertex   -0.09329026937 -0.03799990192 0.04350021482
    vertex   -0.09380024672 -0.03736710176 0.04350021482
    vertex   -0.09380024672 -0.03784170374 0.04350021482
  endloop
endfacet
facet normal -6.735557292e-16 0 1
  outer loop
    vertex   -0.0856102109 -0.03799990192 0.04350021482
    vertex   -0.09380024672 -0.02787490189 0.04350021482
    vertex   -0.09380024672 -0.03546860442 0.04350021482
  endloop
endfacet
facet normal -6.735557292e-16 0 1
  outer loop
    vertex   -0.09380024672 -0.03799000382 0.04350021482
    vertex   -0.09377020597 -0.03799990192 0.04350021482
    vertex   -0.09380024672 -0.03796030208 0.04350021482
  endloop
endfacet
facet normal -6.735557292e-16 0 1
  outer loop
    vertex   -0.09380024672 -0.03799739853 0.04350021482
    vertex   -0.09380024672 -0.03799990192 0.04350021482
    vertex   -0.09379023314 -0.03799990192 0.04350021482
  endloop
endfacet
facet normal -6.735557292e-16 0 1
  outer loop
    vertex   -0.09380024672 -0.03799739853 0.04350021482
    vertex   -0.09379023314 -0.03799990192 0.04350021482
    vertex   -0.09380024672 -0.03799000382 0.04350021482
  endloop
endfacet
facet normal -0 -1 0
  outer loop
    vertex   -0.09379023314 -0.03799990192 0.04350021482
    vertex   -0.09380024672 -0.03799990192 0.04350021482
    vertex   -0.09380024672 -0.03799990192 0.04349020123
  endloop
endfacet
facet normal -0 -1 0
  outer loop
    vertex   -0.09367018938 -0.03799990192 0.04350021482
    vertex   -0.09380024672 -0.03799990192 0.04345014691
    vertex   -0.09380024672 -0.03799990192 0.04331019521
  endloop
endfacet
facet normal -0 -1 0
  outer loop
    vertex   -0.09329026937 -0.03799990192 0.04350021482
    vertex   -0.09380024672 -0.03799990192 0.04331019521
    vertex   -0.09380024672 -0.03799990192 0.04274013638
  endloop
endfacet
facet normal -0 -1 0
  outer loop
    vertex   -0.09377020597 -0.03799990192 0.04350021482
    vertex   -0.09380024672 -0.03799990192 0.04349020123
    vertex   -0.09380024672 -0.03799990192 0.04345014691
  endloop
endfacet
facet normal -0 -1 0
  outer loop
    vertex   -0.09175020456 -0.03799990192 0.04350021482
    vertex   -0.09380024672 -0.03799990192 0.04274013638
    vertex   -0.09380024672 -0.03799990192 0.04047015309
  endloop
endfacet
facet normal 0 -1 0
  outer loop
    vertex   -0.09379023314 -0.03799990192 0.04350021482
    vertex   -0.09380024672 -0.03799990192 0.04349020123
    vertex   -0.09377020597 -0.03799990192 0.04350021482
  endloop
endfacet
facet normal 0 -1 0
  outer loop
    vertex   -0.09367018938 -0.03799990192 0.04350021482
    vertex   -0.09380024672 -0.03799990192 0.04331019521
    vertex   -0.09329026937 -0.03799990192 0.04350021482
  endloop
endfacet
facet normal -0 -1 0
  outer loop
    vertex   -0.09380024672 -0.03799990192 0.04345014691
    vertex   -0.09367018938 -0.03799990192 0.04350021482
    vertex   -0.09377020597 -0.03799990192 0.04350021482
  endloop
endfacet
facet normal 0 -1 0
  outer loop
    vertex   -0.09175020456 -0.03799990192 0.04350021482
    vertex   -0.09380024672 -0.03799990192 0.04047015309
    vertex   -0.0856102109 -0.03799990192 0.04350021482
  endloop
endfacet
facet normal -0 -1 0
  outer loop
    vertex   -0.09380024672 -0.03799990192 0.03138020635
    vertex   -0.06105023623 -0.03799990192 0.04350021482
    vertex   -0.0856102109 -0.03799990192 0.04350021482
  endloop
endfacet
facet normal 1.971852953e-06 -1 -1.331643944e-06
  outer loop
    vertex   -0.06105023623 -0.03799990192 -0.02924975753
    vertex   0.03719979525 -0.03799980506 0.04350021482
    vertex   -0.0119202733 -0.03799990192 0.04350021482
  endloop
endfacet
facet normal 0 -1 0
  outer loop
    vertex   -0.09329026937 -0.03799990192 0.04350021482
    vertex   -0.09380024672 -0.03799990192 0.04274013638
    vertex   -0.09175020456 -0.03799990192 0.04350021482
  endloop
endfacet
facet normal -0 -1 0
  outer loop
    vertex   -0.0119202733 -0.03799990192 0.04350021482
    vertex   -0.06105023623 -0.03799990192 0.04350021482
    vertex   -0.06105023623 -0.03799990192 -0.02924975753
  endloop
endfacet
facet normal 0 -1 0
  outer loop
    vertex   -0.09380024672 -0.03799990192 0.04047015309
    vertex   -0.09380024672 -0.03799990192 0.03138020635
    vertex   -0.0856102109 -0.03799990192 0.04350021482
  endloop
endfacet
facet normal 0 -1 0
  outer loop
    vertex   -0.09380024672 -0.03799990192 -0.00499984622
    vertex   -0.06105023623 -0.03799990192 -0.02924975753
    vertex   -0.06105023623 -0.03799990192 0.04350021482
  endloop
endfacet
facet normal 0 -1 -0
  outer loop
    vertex   -0.09380024672 -0.03799990192 -0.041369766
    vertex   -0.09380024672 -0.03799990192 -0.05046972632
    vertex   -0.0856102109 -0.03799990192 -0.04743978381
  endloop
endfacet
facet normal 0 -1 -0
  outer loop
    vertex   -0.09380024672 -0.03799990192 -0.00499984622
    vertex   -0.09380024672 -0.03799990192 -0.041369766
    vertex   -0.06105023623 -0.03799990192 -0.02924975753
  endloop
endfacet
facet normal 0 -1 -0
  outer loop
    vertex   -0.09380024672 -0.03799990192 -0.05273982882
    vertex   -0.09380024672 -0.03799990192 -0.05330988765
    vertex   -0.09329026937 -0.03799990192 -0.05311974883
  endloop
endfacet
facet normal 0 -1 -0
  outer loop
    vertex   -0.09380024672 -0.03799990192 -0.05344972014
    vertex   -0.09380024672 -0.03799990192 -0.05348977447
    vertex   -0.09377020597 -0.03799990192 -0.05347976089
  endloop
endfacet
facet normal 0 -1 0
  outer loop
    vertex   -0.09380024672 -0.03799990192 -0.05348977447
    vertex   -0.09380024672 -0.03799990192 -0.05349978805
    vertex   -0.09379023314 -0.03799990192 -0.05348977447
  endloop
endfacet
facet normal 0 -1 -0
  outer loop
    vertex   -0.09380024672 -0.03799990192 -0.05330988765
    vertex   -0.09380024672 -0.03799990192 -0.05344972014
    vertex   -0.09367018938 -0.03799990192 -0.05339989066
  endloop
endfacet
facet normal 0 -1 -0
  outer loop
    vertex   -0.09380024672 -0.03799990192 -0.05046972632
    vertex   -0.09380024672 -0.03799990192 -0.05273982882
    vertex   -0.09175020456 -0.03799990192 -0.05197975039
  endloop
endfacet
facet normal -0 -1 0
  outer loop
    vertex   -0.09175020456 -0.03799990192 -0.05197975039
    vertex   -0.09380024672 -0.03799990192 -0.05273982882
    vertex   -0.09329026937 -0.03799990192 -0.05311974883
  endloop
endfacet
facet normal -0 -1 0
  outer loop
    vertex   -0.0856102109 -0.03799990192 -0.04743978381
    vertex   -0.09380024672 -0.03799990192 -0.05046972632
    vertex   -0.09175020456 -0.03799990192 -0.05197975039
  endloop
endfacet
facet normal -0 -1 0
  outer loop
    vertex   -0.0856102109 -0.03799990192 -0.04743978381
    vertex   -0.06105023623 -0.03799990192 -0.02924975753
    vertex   -0.09380024672 -0.03799990192 -0.041369766
  endloop
endfacet
facet normal -0 -1 0
  outer loop
    vertex   -0.09367018938 -0.03799990192 -0.05339989066
    vertex   -0.09380024672 -0.03799990192 -0.05344972014
    vertex   -0.09377020597 -0.03799990192 -0.05347976089
  endloop
endfacet
facet normal -0 -1 0
  outer loop
    vertex   -0.09377020597 -0.03799990192 -0.05347976089
    vertex   -0.09380024672 -0.03799990192 -0.05348977447
    vertex   -0.09379023314 -0.03799990192 -0.05348977447
  endloop
endfacet
facet normal -0 -1 0
  outer loop
    vertex   -0.09367018938 -0.03799990192 -0.05339989066
    vertex   -0.09329026937 -0.03799990192 -0.05311974883
    vertex   -0.09380024672 -0.03799990192 -0.05330988765
  endloop
endfacet
facet normal -0 -1 0
  outer loop
    vertex   -0.09380024672 -0.03799990192 -0.00499984622
    vertex   -0.06105023623 -0.03799990192 0.04350021482
    vertex   -0.09380024672 -0.03799990192 0.03138020635
  endloop
endfacet
facet normal -0 -1 0
  outer loop
    vertex   -0.02830022573 -0.03799990192 -0.05349978805
    vertex   -0.0119202733 -0.03799990192 0.007130175829
    vertex   -0.06105023623 -0.03799990192 -0.02924975753
  endloop
endfacet
facet normal 0 -1 -0
  outer loop
    vertex   -0.0119202733 -0.03799990192 0.007130175829
    vertex   -0.02830022573 -0.03799990192 -0.05349978805
    vertex   0.03719979525 -0.03799990192 -0.02924975753
  endloop
endfacet
facet normal 0 -1 0
  outer loop
    vertex   -0.0856102109 -0.03799990192 -0.04743978381
    vertex   -0.07742017508 -0.03799990192 -0.05349978805
    vertex   -0.06105023623 -0.03799990192 -0.02924975753
  endloop
endfacet
facet normal -0 -1 0
  outer loop
    vertex   -0.09378021955 -0.03799990192 -0.05349978805
    vertex   -0.09377020597 -0.03799990192 -0.05347976089
    vertex   -0.09379023314 -0.03799990192 -0.05348977447
  endloop
endfacet
facet normal 0 -1 0
  outer loop
    vertex   -0.09329026937 -0.03799990192 -0.05311974883
    vertex   -0.09278017282 -0.03799990192 -0.05349978805
    vertex   -0.09175020456 -0.03799990192 -0.05197975039
  endloop
endfacet
facet normal 0 -1 0
  outer loop
    vertex   -0.09367018938 -0.03799990192 -0.05339989066
    vertex   -0.09354025126 -0.03799990192 -0.05349978805
    vertex   -0.09329026937 -0.03799990192 -0.05311974883
  endloop
endfacet
facet normal -0 -1 0
  outer loop
    vertex   -0.0856102109 -0.03799990192 -0.04743978381
    vertex   -0.09175020456 -0.03799990192 -0.05197975039
    vertex   -0.08971017599 -0.03799990192 -0.05349978805
  endloop
endfacet
facet normal -0 -1 0
  outer loop
    vertex   -0.09374016523 -0.03799990192 -0.05349978805
    vertex   -0.09367018938 -0.03799990192 -0.05339989066
    vertex   -0.09377020597 -0.03799990192 -0.05347976089
  endloop
endfacet
facet normal 9.860605132e-07 -1 1.331375756e-06
  outer loop
    vertex   0.03719979525 -0.03799990192 -0.02924975753
    vertex   0.03719979525 -0.03799980506 0.04350021482
    vertex   -0.0119202733 -0.03799990192 0.007130175829
  endloop
endfacet
facet normal -0 -1 0
  outer loop
    vertex   0.03310984373 -0.03799990192 -0.05349978805
    vertex   0.03719979525 -0.03799990192 -0.05197975039
    vertex   0.03719979525 -0.03799990192 -0.04743978381
  endloop
endfacet
facet normal -0 -1 0
  outer loop
    vertex   0.03719979525 -0.03799990192 -0.04743978381
    vertex   0.03719979525 -0.03799990192 -0.02924975753
    vertex   0.02082973719 -0.03799990192 -0.05349978805
  endloop
endfacet
facet normal -0 -1 0
  outer loop
    vertex   0.03693979979 -0.03799990192 -0.05349978805
    vertex   0.03719979525 -0.03799990192 -0.05339989066
    vertex   0.03719979525 -0.03799990192 -0.05311974883
  endloop
endfacet
facet normal -0 -1 0
  outer loop
    vertex   0.03717988729 -0.03799990192 -0.05349978805
    vertex   0.03719979525 -0.03799990192 -0.05348977447
    vertex   0.03719979525 -0.03799990192 -0.05347976089
  endloop
endfacet
facet normal -0 -1 0
  outer loop
    vertex   0.03719979525 -0.03799990192 -0.05347976089
    vertex   0.03719979525 -0.03799990192 -0.05339989066
    vertex   0.03713983297 -0.03799990192 -0.05349978805
  endloop
endfacet
facet normal -0 -1 0
  outer loop
    vertex   0.03719979525 -0.03799990192 -0.05311974883
    vertex   0.03719979525 -0.03799990192 -0.05197975039
    vertex   0.03617984056 -0.03799990192 -0.05349978805
  endloop
endfacet
facet normal -0 -1 0
  outer loop
    vertex   -0.09378021955 -0.03799990192 -0.05349978805
    vertex   -0.09379023314 -0.03799990192 -0.05348977447
    vertex   -0.09380024672 -0.03799990192 -0.05349978805
  endloop
endfacet
facet normal -0 -1 0
  outer loop
    vertex   -0.09354025126 -0.03799990192 -0.05349978805
    vertex   -0.09367018938 -0.03799990192 -0.05339989066
    vertex   -0.09374016523 -0.03799990192 -0.05349978805
  endloop
endfacet
facet normal -0 -1 0
  outer loop
    vertex   -0.09374016523 -0.03799990192 -0.05349978805
    vertex   -0.09377020597 -0.03799990192 -0.05347976089
    vertex   -0.09378021955 -0.03799990192 -0.05349978805
  endloop
endfacet
facet normal -0 -1 0
  outer loop
    vertex   -0.08971017599 -0.03799990192 -0.05349978805
    vertex   -0.09175020456 -0.03799990192 -0.05197975039
    vertex   -0.09278017282 -0.03799990192 -0.05349978805
  endloop
endfacet
facet normal -0 -1 0
  outer loop
    vertex   0.02082973719 -0.03799990192 -0.05349978805
    vertex   0.03719979525 -0.03799990192 -0.02924975753
    vertex   -0.02830022573 -0.03799990192 -0.05349978805
  endloop
endfacet
facet normal -0 -1 0
  outer loop
    vertex   -0.02830022573 -0.03799990192 -0.05349978805
    vertex   -0.06105023623 -0.03799990192 -0.02924975753
    vertex   -0.07742017508 -0.03799990192 -0.05349978805
  endloop
endfacet
facet normal -0 -1 0
  outer loop
    vertex   -0.07742017508 -0.03799990192 -0.05349978805
    vertex   -0.0856102109 -0.03799990192 -0.04743978381
    vertex   -0.08971017599 -0.03799990192 -0.05349978805
  endloop
endfacet
facet normal -0 -1 0
  outer loop
    vertex   -0.09278017282 -0.03799990192 -0.05349978805
    vertex   -0.09329026937 -0.03799990192 -0.05311974883
    vertex   -0.09354025126 -0.03799990192 -0.05349978805
  endloop
endfacet
facet normal -0 -1 0
  outer loop
    vertex   0.03617984056 -0.03799990192 -0.05349978805
    vertex   0.03719979525 -0.03799990192 -0.05197975039
    vertex   0.03310984373 -0.03799990192 -0.05349978805
  endloop
endfacet
facet normal -0 -1 0
  outer loop
    vertex   0.03693979979 -0.03799990192 -0.05349978805
    vertex   0.03713983297 -0.03799990192 -0.05349978805
    vertex   0.03719979525 -0.03799990192 -0.05339989066
  endloop
endfacet
facet normal -0 -1 0
  outer loop
    vertex   0.03719979525 -0.03799990192 -0.05311974883
    vertex   0.03617984056 -0.03799990192 -0.05349978805
    vertex   0.03693979979 -0.03799990192 -0.05349978805
  endloop
endfacet
facet normal -0 -1 0
  outer loop
    vertex   0.03713983297 -0.03799990192 -0.05349978805
    vertex   0.03717988729 -0.03799990192 -0.05349978805
    vertex   0.03719979525 -0.03799990192 -0.05347976089
  endloop
endfacet
facet normal -0 -1 0
  outer loop
    vertex   0.03719979525 -0.03799990192 -0.04743978381
    vertex   0.02082973719 -0.03799990192 -0.05349978805
    vertex   0.03310984373 -0.03799990192 -0.05349978805
  endloop
endfacet
facet normal -0 -1 0
  outer loop
    vertex   0.03719979525 -0.03799990192 -0.05349978805
    vertex   0.03719979525 -0.03799990192 -0.05348977447
    vertex   0.03717988729 -0.03799990192 -0.05349978805
  endloop
endfacet
facet normal 0 1 0
  outer loop
    vertex   0.03719979525 0.04300010204 -0.05348977447
    vertex   0.03718978167 0.04300010204 -0.05348977447
    vertex   0.03716987371 0.04300010204 -0.05347976089
  endloop
endfacet
facet normal 0 1 0
  outer loop
    vertex   0.0351498723 0.04300010204 -0.05197975039
    vertex   0.02900987864 0.04300010204 -0.04743978381
    vertex   0.03719979525 0.04300010204 -0.05046972632
  endloop
endfacet
facet normal 0 1 0
  outer loop
    vertex   0.03719979525 0.04300010204 -0.05330988765
    vertex   0.03706973791 0.04300010204 -0.05339989066
    vertex   0.03668981791 0.04300010204 -0.05311974883
  endloop
endfacet
facet normal 0 1 0
  outer loop
    vertex   0.03719979525 0.04300010204 -0.05273982882
    vertex   0.03668981791 0.04300010204 -0.05311974883
    vertex   0.0351498723 0.04300010204 -0.05197975039
  endloop
endfacet
facet normal 0 1 0
  outer loop
    vertex   0.03716987371 0.04300010204 -0.05347976089
    vertex   0.03706973791 0.04300010204 -0.05339989066
    vertex   0.03719979525 0.04300010204 -0.05344972014
  endloop
endfacet
facet normal 0 1 0
  outer loop
    vertex   0.03719979525 0.04300010204 -0.041369766
    vertex   0.02900987864 0.04300010204 -0.04743978381
    vertex   0.004449784756 0.04300010204 -0.02924975753
  endloop
endfacet
facet normal 0 1 0
  outer loop
    vertex   0.03719979525 0.04300010204 -0.05348977447
    vertex   0.03719979525 0.04300010204 -0.05349978805
    vertex   0.03718978167 0.04300010204 -0.05348977447
  endloop
endfacet
facet normal 0 1 0
  outer loop
    vertex   0.03719979525 0.04300010204 -0.05330988765
    vertex   0.03719979525 0.04300010204 -0.05344972014
    vertex   0.03706973791 0.04300010204 -0.05339989066
  endloop
endfacet
facet normal 0 1 0
  outer loop
    vertex   0.03719979525 0.04300010204 -0.05348977447
    vertex   0.03716987371 0.04300010204 -0.05347976089
    vertex   0.03719979525 0.04300010204 -0.05344972014
  endloop
endfacet
facet normal 0 1 0
  outer loop
    vertex   0.03719979525 0.04300010204 -0.05046972632
    vertex   0.03719979525 0.04300010204 -0.05273982882
    vertex   0.0351498723 0.04300010204 -0.05197975039
  endloop
endfacet
facet normal 0 1 0
  outer loop
    vertex   0.03719979525 0.04300010204 -0.00499984622
    vertex   0.03719979525 0.04300010204 -0.041369766
    vertex   0.004449784756 0.04300010204 -0.02924975753
  endloop
endfacet
facet normal 0 1 0
  outer loop
    vertex   0.004449784756 0.04300010204 0.04350021482
    vertex   0.03719979525 0.04300010204 0.03138020635
    vertex   0.03719979525 0.04300010204 -0.00499984622
  endloop
endfacet
facet normal 0 1 0
  outer loop
    vertex   0.03719979525 0.04300010204 -0.05046972632
    vertex   0.02900987864 0.04300010204 -0.04743978381
    vertex   0.03719979525 0.04300010204 -0.041369766
  endloop
endfacet
facet normal 0 1 0
  outer loop
    vertex   0.03719979525 0.04300010204 -0.05330988765
    vertex   0.03668981791 0.04300010204 -0.05311974883
    vertex   0.03719979525 0.04300010204 -0.05273982882
  endloop
endfacet
facet normal 0 1 0
  outer loop
    vertex   0.03719979525 0.04300010204 -0.00499984622
    vertex   0.004449784756 0.04300010204 -0.02924975753
    vertex   0.004449784756 0.04300010204 0.04350021482
  endloop
endfacet
facet normal -1.576868817e-05 1 -1.065545803e-05
  outer loop
    vertex   0.02900987864 0.04300010204 0.04350021482
    vertex   0.03719979525 0.0430001989 0.04047015309
    vertex   0.03719979525 0.04300010204 0.03138020635
  endloop
endfacet
facet normal 0 1 0
  outer loop
    vertex   0.0351498723 0.0430001989 0.04350021482
    vertex   0.03668981791 0.0430001989 0.04350021482
    vertex   0.03719979525 0.0430001989 0.04274013638
  endloop
endfacet
facet normal -1.577486182e-05 1 -1.06721418e-05
  outer loop
    vertex   0.02900987864 0.04300010204 0.04350021482
    vertex   0.0351498723 0.0430001989 0.04350021482
    vertex   0.03719979525 0.0430001989 0.04047015309
  endloop
endfacet
facet normal 0 1 0
  outer loop
    vertex   0.03706973791 0.0430001989 0.04350021482
    vertex   0.03716987371 0.0430001989 0.04350021482
    vertex   0.03719979525 0.0430001989 0.04345014691
  endloop
endfacet
facet normal 0 1 0
  outer loop
    vertex   0.03716987371 0.0430001989 0.04350021482
    vertex   0.03718978167 0.0430001989 0.04350021482
    vertex   0.03719979525 0.0430001989 0.04349020123
  endloop
endfacet
facet normal 0 1 0
  outer loop
    vertex   0.004449784756 0.04300010204 0.04350021482
    vertex   0.004449784756 0.04300010204 -0.02924975753
    vertex   -0.04467028379 0.04300010204 0.04350021482
  endloop
endfacet
facet normal 0 1 0
  outer loop
    vertex   0.02900987864 0.04300010204 0.04350021482
    vertex   0.03719979525 0.04300010204 0.03138020635
    vertex   0.004449784756 0.04300010204 0.04350021482
  endloop
endfacet
facet normal 0 1 0
  outer loop
    vertex   0.03668981791 0.0430001989 0.04350021482
    vertex   0.03706973791 0.0430001989 0.04350021482
    vertex   0.03719979525 0.0430001989 0.04331019521
  endloop
endfacet
facet normal 0 1 0
  outer loop
    vertex   0.03719979525 0.0430001989 0.04047015309
    vertex   0.0351498723 0.0430001989 0.04350021482
    vertex   0.03719979525 0.0430001989 0.04274013638
  endloop
endfacet
facet normal 0 1 0
  outer loop
    vertex   0.03719979525 0.0430001989 0.04331019521
    vertex   0.03706973791 0.0430001989 0.04350021482
    vertex   0.03719979525 0.0430001989 0.04345014691
  endloop
endfacet
facet normal 0 1 0
  outer loop
    vertex   0.03668981791 0.0430001989 0.04350021482
    vertex   0.03719979525 0.0430001989 0.04331019521
    vertex   0.03719979525 0.0430001989 0.04274013638
  endloop
endfacet
facet normal 0 1 0
  outer loop
    vertex   0.03719979525 0.0430001989 0.04349020123
    vertex   0.03718978167 0.0430001989 0.04350021482
    vertex   0.03719979525 0.0430001989 0.04350021482
  endloop
endfacet
facet normal 0 1 0
  outer loop
    vertex   0.03719979525 0.0430001989 0.04349020123
    vertex   0.03719979525 0.0430001989 0.04345014691
    vertex   0.03716987371 0.0430001989 0.04350021482
  endloop
endfacet
facet normal 0 1 0
  outer loop
    vertex   -0.04467028379 0.04300010204 0.04350021482
    vertex   0.004449784756 0.04300010204 -0.02924975753
    vertex   -0.09380024672 0.04300010204 0.04350021482
  endloop
endfacet
facet normal 0 1 0
  outer loop
    vertex   -0.09378021955 0.04300010204 -0.05349978805
    vertex   -0.09380024672 0.04300010204 -0.05349978805
    vertex   -0.09380024672 0.04300010204 -0.05348977447
  endloop
endfacet
facet normal 0 1 0
  outer loop
    vertex   -0.09354025126 0.04300010204 -0.05349978805
    vertex   -0.09374016523 0.04300010204 -0.05349978805
    vertex   -0.09380024672 0.04300010204 -0.05339989066
  endloop
endfacet
facet normal 0 1 0
  outer loop
    vertex   -0.08971017599 0.04300010204 -0.05349978805
    vertex   -0.09278017282 0.04300010204 -0.05349978805
    vertex   -0.09380024672 0.04300010204 -0.05197975039
  endloop
endfacet
facet normal 0 1 0
  outer loop
    vertex   -0.07742017508 0.04300010204 -0.05349978805
    vertex   -0.08971017599 0.04300010204 -0.05349978805
    vertex   -0.09380024672 0.04300010204 -0.04743978381
  endloop
endfacet
facet normal 0 1 0
  outer loop
    vertex   -0.09354025126 0.04300010204 -0.05349978805
    vertex   -0.09380024672 0.04300010204 -0.05311974883
    vertex   -0.09278017282 0.04300010204 -0.05349978805
  endloop
endfacet
facet normal 0 1 0
  outer loop
    vertex   -0.09378021955 0.04300010204 -0.05349978805
    vertex   -0.09380024672 0.04300010204 -0.05347976089
    vertex   -0.09374016523 0.04300010204 -0.05349978805
  endloop
endfacet
facet normal 0 1 0
  outer loop
    vertex   0.004449784756 0.04300010204 -0.02924975753
    vertex   0.02082973719 0.04300010204 -0.05349978805
    vertex   -0.02830022573 0.04300010204 -0.05349978805
  endloop
endfacet
facet normal 0 1 0
  outer loop
    vertex   0.0351498723 0.04300010204 -0.05197975039
    vertex   0.03617984056 0.04300010204 -0.05349978805
    vertex   0.03310984373 0.04300010204 -0.05349978805
  endloop
endfacet
facet normal 0 1 0
  outer loop
    vertex   0.03310984373 0.04300010204 -0.05349978805
    vertex   0.02082973719 0.04300010204 -0.05349978805
    vertex   0.02900987864 0.04300010204 -0.04743978381
  endloop
endfacet
facet normal 0 1 0
  outer loop
    vertex   0.03706973791 0.04300010204 -0.05339989066
    vertex   0.03713983297 0.04300010204 -0.05349978805
    vertex   0.03693979979 0.04300010204 -0.05349978805
  endloop
endfacet
facet normal 0 1 0
  outer loop
    vertex   0.03718978167 0.04300010204 -0.05348977447
    vertex   0.03719979525 0.04300010204 -0.05349978805
    vertex   0.03717988729 0.04300010204 -0.05349978805
  endloop
endfacet
facet normal 0 1 0
  outer loop
    vertex   0.03717988729 0.04300010204 -0.05349978805
    vertex   0.03713983297 0.04300010204 -0.05349978805
    vertex   0.03716987371 0.04300010204 -0.05347976089
  endloop
endfacet
facet normal 0 1 0
  outer loop
    vertex   0.03693979979 0.04300010204 -0.05349978805
    vertex   0.03617984056 0.04300010204 -0.05349978805
    vertex   0.03668981791 0.04300010204 -0.05311974883
  endloop
endfacet
facet normal 0 1 0
  outer loop
    vertex   -0.09380024672 0.04300010204 -0.02924975753
    vertex   -0.02830022573 0.04300010204 -0.05349978805
    vertex   -0.07742017508 0.04300010204 -0.05349978805
  endloop
endfacet
facet normal 0 1 0
  outer loop
    vertex   -0.09380024672 0.04300010204 -0.05339989066
    vertex   -0.09374016523 0.04300010204 -0.05349978805
    vertex   -0.09380024672 0.04300010204 -0.05347976089
  endloop
endfacet
facet normal 0 1 0
  outer loop
    vertex   -0.09380024672 0.04300010204 -0.05347976089
    vertex   -0.09378021955 0.04300010204 -0.05349978805
    vertex   -0.09380024672 0.04300010204 -0.05348977447
  endloop
endfacet
facet normal 0 1 0
  outer loop
    vertex   -0.09380024672 0.04300010204 -0.05197975039
    vertex   -0.09278017282 0.04300010204 -0.05349978805
    vertex   -0.09380024672 0.04300010204 -0.05311974883
  endloop
endfacet
facet normal 0 1 0
  outer loop
    vertex   -0.09380024672 0.04300010204 -0.02924975753
    vertex   -0.07742017508 0.04300010204 -0.05349978805
    vertex   -0.09380024672 0.04300010204 -0.04743978381
  endloop
endfacet
facet normal 0 1 0
  outer loop
    vertex   -0.04467028379 0.04300010204 0.007130175829
    vertex   -0.02830022573 0.04300010204 -0.05349978805
    vertex   -0.09380024672 0.04300010204 -0.02924975753
  endloop
endfacet
facet normal 0 1 0
  outer loop
    vertex   -0.09380024672 0.04300010204 -0.04743978381
    vertex   -0.08971017599 0.04300010204 -0.05349978805
    vertex   -0.09380024672 0.04300010204 -0.05197975039
  endloop
endfacet
facet normal 0 1 0
  outer loop
    vertex   -0.09380024672 0.04300010204 -0.05311974883
    vertex   -0.09354025126 0.04300010204 -0.05349978805
    vertex   -0.09380024672 0.04300010204 -0.05339989066
  endloop
endfacet
facet normal 0 1 0
  outer loop
    vertex   0.03693979979 0.04300010204 -0.05349978805
    vertex   0.03668981791 0.04300010204 -0.05311974883
    vertex   0.03706973791 0.04300010204 -0.05339989066
  endloop
endfacet
facet normal 0 1 0
  outer loop
    vertex   0.03717988729 0.04300010204 -0.05349978805
    vertex   0.03716987371 0.04300010204 -0.05347976089
    vertex   0.03718978167 0.04300010204 -0.05348977447
  endloop
endfacet
facet normal 0 1 0
  outer loop
    vertex   0.03716987371 0.04300010204 -0.05347976089
    vertex   0.03713983297 0.04300010204 -0.05349978805
    vertex   0.03706973791 0.04300010204 -0.05339989066
  endloop
endfacet
facet normal 0 1 0
  outer loop
    vertex   0.004449784756 0.04300010204 -0.02924975753
    vertex   -0.02830022573 0.04300010204 -0.05349978805
    vertex   -0.04467028379 0.04300010204 0.007130175829
  endloop
endfacet
facet normal 0 1 0
  outer loop
    vertex   0.0351498723 0.04300010204 -0.05197975039
    vertex   0.03310984373 0.04300010204 -0.05349978805
    vertex   0.02900987864 0.04300010204 -0.04743978381
  endloop
endfacet
facet normal 0 1 0
  outer loop
    vertex   0.02900987864 0.04300010204 -0.04743978381
    vertex   0.02082973719 0.04300010204 -0.05349978805
    vertex   0.004449784756 0.04300010204 -0.02924975753
  endloop
endfacet
facet normal 0 1 0
  outer loop
    vertex   -0.04467028379 0.04300010204 0.007130175829
    vertex   -0.09380024672 0.04300010204 -0.02924975753
    vertex   -0.09380024672 0.04300010204 0.04350021482
  endloop
endfacet
facet normal 0 1 0
  outer loop
    vertex   0.0351498723 0.04300010204 -0.05197975039
    vertex   0.03668981791 0.04300010204 -0.05311974883
    vertex   0.03617984056 0.04300010204 -0.05349978805
  endloop
endfacet
facet normal -1 0 -6.735557292e-16
  outer loop
    vertex   -0.09380024672 -0.03799499944 -0.05348977447
    vertex   -0.09380024672 -0.03799000382 -0.05349978805
    vertex   -0.09380024672 -0.03799739853 -0.05349978805
  endloop
endfacet
facet normal -1 0 -6.735557292e-16
  outer loop
    vertex   -0.09380024672 -0.03792080283 -0.05339989066
    vertex   -0.09380024672 -0.03784170374 -0.05349978805
    vertex   -0.09380024672 -0.03796040267 -0.05349978805
  endloop
endfacet
facet normal -1 0 -6.735557292e-16
  outer loop
    vertex   -0.09380024672 -0.03796040267 -0.05349978805
    vertex   -0.09380024672 -0.03799000382 -0.05349978805
    vertex   -0.09380024672 -0.037980102 -0.05347976089
  endloop
endfacet
facet normal -1 0 -6.735557292e-16
  outer loop
    vertex   -0.09380024672 -0.0367343016 -0.05197975039
    vertex   -0.09380024672 -0.03546870127 -0.05349978805
    vertex   -0.09380024672 -0.03736710176 -0.05349978805
  endloop
endfacet
facet normal -1 0 -6.735557292e-16
  outer loop
    vertex   -0.09380024672 -0.01774990186 -0.02924975753
    vertex   -0.09380024672 0.002500080271 -0.05349978805
    vertex   -0.09380024672 -0.02787490189 -0.05349978805
  endloop
endfacet
facet normal -1 0 -6.735557292e-16
  outer loop
    vertex   -0.09380024672 0.04300010204 -0.02924975753
    vertex   -0.09380024672 0.03287510201 -0.05349978805
    vertex   -0.09380024672 0.002500080271 -0.05349978805
  endloop
endfacet
facet normal -1 0 -6.735557292e-16
  outer loop
    vertex   -0.09380024672 -0.02787490189 -0.05349978805
    vertex   -0.09380024672 -0.03546870127 -0.05349978805
    vertex   -0.09380024672 -0.03293740377 -0.04743978381
  endloop
endfacet
facet normal -1 0 -6.735557292e-16
  outer loop
    vertex   -0.09380024672 -0.03736710176 -0.05349978805
    vertex   -0.09380024672 -0.03784170374 -0.05349978805
    vertex   -0.09380024672 -0.03768350184 -0.05311974883
  endloop
endfacet
facet normal -1 0 -6.735557292e-16
  outer loop
    vertex   -0.09380024672 0.04300010204 -0.05197975039
    vertex   -0.09380024672 0.04236730188 -0.05349978805
    vertex   -0.09380024672 0.04046880081 -0.05349978805
  endloop
endfacet
facet normal -1 0 -6.735557292e-16
  outer loop
    vertex   -0.09380024672 0.04300010204 -0.05339989066
    vertex   -0.09380024672 0.04296050221 -0.05349978805
    vertex   -0.09380024672 0.04284190014 -0.05349978805
  endloop
endfacet
facet normal -1 0 -6.735557292e-16
  outer loop
    vertex   -0.09380024672 0.04284190014 -0.05349978805
    vertex   -0.09380024672 0.04236730188 -0.05349978805
    vertex   -0.09380024672 0.04300010204 -0.05311974883
  endloop
endfacet
facet normal -1 0 -6.735557292e-16
  outer loop
    vertex   -0.09380024672 0.04300010204 -0.05348977447
    vertex   -0.09380024672 0.04299760237 -0.05349978805
    vertex   -0.09380024672 0.04299020395 -0.05349978805
  endloop
endfacet
facet normal -1 0 -6.735557292e-16
  outer loop
    vertex   -0.09380024672 0.04300010204 -0.05347976089
    vertex   -0.09380024672 0.04299020395 -0.05349978805
    vertex   -0.09380024672 0.04296050221 -0.05349978805
  endloop
endfacet
facet normal -1 0 -6.735557292e-16
  outer loop
    vertex   -0.09380024672 0.04300010204 -0.04743978381
    vertex   -0.09380024672 0.04046880081 -0.05349978805
    vertex   -0.09380024672 0.03287510201 -0.05349978805
  endloop
endfacet
facet normal -1 0 -6.735557292e-16
  outer loop
    vertex   -0.09380024672 -0.03799000382 -0.05349978805
    vertex   -0.09380024672 -0.03799499944 -0.05348977447
    vertex   -0.09380024672 -0.037980102 -0.05347976089
  endloop
endfacet
facet normal -1 0 -6.735557292e-16
  outer loop
    vertex   -0.09380024672 -0.03796040267 -0.05349978805
    vertex   -0.09380024672 -0.037980102 -0.05347976089
    vertex   -0.09380024672 -0.03792080283 -0.05339989066
  endloop
endfacet
facet normal -1 0 -6.735557292e-16
  outer loop
    vertex   -0.09380024672 -0.03768350184 -0.05311974883
    vertex   -0.09380024672 -0.03784170374 -0.05349978805
    vertex   -0.09380024672 -0.03792080283 -0.05339989066
  endloop
endfacet
facet normal -1 0 -6.735557292e-16
  outer loop
    vertex   -0.09380024672 -0.03799499944 -0.05348977447
    vertex   -0.09380024672 -0.03799739853 -0.05349978805
    vertex   -0.09380024672 -0.03799870238 -0.05349978805
  endloop
endfacet
facet normal -1 0 -6.735557292e-16
  outer loop
    vertex   -0.09380024672 -0.03546870127 -0.05349978805
    vertex   -0.09380024672 -0.0367343016 -0.05197975039
    vertex   -0.09380024672 -0.03293740377 -0.04743978381
  endloop
endfacet
facet normal -1 0 -6.735557292e-16
  outer loop
    vertex   -0.09380024672 0.04300010204 -0.02924975753
    vertex   -0.09380024672 0.002500080271 -0.05349978805
    vertex   -0.09380024672 -0.01774990186 -0.02924975753
  endloop
endfacet
facet normal -1 0 -6.735557292e-16
  outer loop
    vertex   -0.09380024672 -0.03293740377 -0.04743978381
    vertex   -0.09380024672 -0.01774990186 -0.02924975753
    vertex   -0.09380024672 -0.02787490189 -0.05349978805
  endloop
endfacet
facet normal -1 0 -6.735557292e-16
  outer loop
    vertex   -0.09380024672 -0.03736710176 -0.05349978805
    vertex   -0.09380024672 -0.03768350184 -0.05311974883
    vertex   -0.09380024672 -0.0367343016 -0.05197975039
  endloop
endfacet
facet normal -1 0 -6.735557292e-16
  outer loop
    vertex   -0.09380024672 0.04299760237 -0.05349978805
    vertex   -0.09380024672 0.04300010204 -0.05348977447
    vertex   -0.09380024672 0.04300010204 -0.05349978805
  endloop
endfacet
facet normal -1 0 -6.735557292e-16
  outer loop
    vertex   -0.09380024672 0.04300010204 -0.05348977447
    vertex   -0.09380024672 0.04299020395 -0.05349978805
    vertex   -0.09380024672 0.04300010204 -0.05347976089
  endloop
endfacet
facet normal -1 0 -6.735557292e-16
  outer loop
    vertex   -0.09380024672 0.04300010204 -0.05339989066
    vertex   -0.09380024672 0.04284190014 -0.05349978805
    vertex   -0.09380024672 0.04300010204 -0.05311974883
  endloop
endfacet
facet normal -1 0 -6.735557292e-16
  outer loop
    vertex   -0.09380024672 0.04296050221 -0.05349978805
    vertex   -0.09380024672 0.04300010204 -0.05339989066
    vertex   -0.09380024672 0.04300010204 -0.05347976089
  endloop
endfacet
facet normal -1 0 -6.735557292e-16
  outer loop
    vertex   -0.09380024672 0.04046880081 -0.05349978805
    vertex   -0.09380024672 0.04300010204 -0.04743978381
    vertex   -0.09380024672 0.04300010204 -0.05197975039
  endloop
endfacet
facet normal -1 0 -6.735557292e-16
  outer loop
    vertex   -0.09380024672 -0.01774990186 -0.02924975753
    vertex   -0.09380024672 0.04300010204 0.007130175829
    vertex   -0.09380024672 0.04300010204 -0.02924975753
  endloop
endfacet
facet normal -1 0 -6.735557292e-16
  outer loop
    vertex   -0.09380024672 0.04300010204 0.007130175829
    vertex   -0.09380024672 -0.01774990186 -0.02924975753
    vertex   -0.09380024672 0.04300010204 0.04350021482
  endloop
endfacet
facet normal -1 0 -6.735557292e-16
  outer loop
    vertex   -0.09380024672 0.04300010204 -0.02924975753
    vertex   -0.09380024672 0.04300010204 -0.04743978381
    vertex   -0.09380024672 0.03287510201 -0.05349978805
  endloop
endfacet
facet normal -1 0 -6.735557292e-16
  outer loop
    vertex   -0.09380024672 0.04236730188 -0.05349978805
    vertex   -0.09380024672 0.04300010204 -0.05197975039
    vertex   -0.09380024672 0.04300010204 -0.05311974883
  endloop
endfacet
facet normal -1 0 -6.735557292e-16
  outer loop
    vertex   -0.09380024672 -0.037980102 -0.05347976089
    vertex   -0.09380024672 -0.03799990192 -0.05348977447
    vertex   -0.09380024672 -0.03799990192 -0.05344972014
  endloop
endfacet
facet normal -1 0 -6.735557292e-16
  outer loop
    vertex   -0.09380024672 -0.03799499944 -0.05348977447
    vertex   -0.09380024672 -0.03799990192 -0.05349978805
    vertex   -0.09380024672 -0.03799990192 -0.05348977447
  endloop
endfacet
facet normal -1 0 -6.735557292e-16
  outer loop
    vertex   -0.09380024672 -0.03768350184 -0.05311974883
    vertex   -0.09380024672 -0.03799990192 -0.05330988765
    vertex   -0.09380024672 -0.03799990192 -0.05273982882
  endloop
endfacet
facet normal -1 0 -6.735557292e-16
  outer loop
    vertex   -0.09380024672 -0.03799990192 -0.041369766
    vertex   -0.09380024672 -0.03293740377 -0.04743978381
    vertex   -0.09380024672 -0.03799990192 -0.05046972632
  endloop
endfacet
facet normal -1 0 -6.735557292e-16
  outer loop
    vertex   -0.09380024672 -0.03799990192 -0.05046972632
    vertex   -0.09380024672 -0.0367343016 -0.05197975039
    vertex   -0.09380024672 -0.03799990192 -0.05273982882
  endloop
endfacet
facet normal -1 0 -6.735557292e-16
  outer loop
    vertex   -0.09380024672 -0.03799990192 -0.05330988765
    vertex   -0.09380024672 -0.03792080283 -0.05339989066
    vertex   -0.09380024672 -0.03799990192 -0.05344972014
  endloop
endfacet
facet normal -1 0 -6.735557292e-16
  outer loop
    vertex   -0.09380024672 -0.01774990186 -0.02924975753
    vertex   -0.09380024672 -0.03799990192 -0.041369766
    vertex   -0.09380024672 -0.03799990192 -0.00499984622
  endloop
endfacet
facet normal -1 0 -6.735557292e-16
  outer loop
    vertex   -0.09380024672 -0.03799870238 -0.05349978805
    vertex   -0.09380024672 -0.03799990192 -0.05349978805
    vertex   -0.09380024672 -0.03799499944 -0.05348977447
  endloop
endfacet
facet normal -1 0 -6.735557292e-16
  outer loop
    vertex   -0.09380024672 -0.03792080283 -0.05339989066
    vertex   -0.09380024672 -0.037980102 -0.05347976089
    vertex   -0.09380024672 -0.03799990192 -0.05344972014
  endloop
endfacet
facet normal -1 0 -6.735557292e-16
  outer loop
    vertex   -0.09380024672 -0.03799990192 -0.05348977447
    vertex   -0.09380024672 -0.037980102 -0.05347976089
    vertex   -0.09380024672 -0.03799499944 -0.05348977447
  endloop
endfacet
facet normal -1 0 -6.735557292e-16
  outer loop
    vertex   -0.09380024672 -0.03768350184 -0.05311974883
    vertex   -0.09380024672 -0.03792080283 -0.05339989066
    vertex   -0.09380024672 -0.03799990192 -0.05330988765
  endloop
endfacet
facet normal -1 0 -6.735557292e-16
  outer loop
    vertex   -0.09380024672 -0.03799990192 -0.041369766
    vertex   -0.09380024672 -0.01774990186 -0.02924975753
    vertex   -0.09380024672 -0.03293740377 -0.04743978381
  endloop
endfacet
facet normal -1 0 -6.735557292e-16
  outer loop
    vertex   -0.09380024672 -0.01774990186 -0.02924975753
    vertex   -0.09380024672 -0.03799990192 -0.00499984622
    vertex   -0.09380024672 0.01262510102 0.007130175829
  endloop
endfacet
facet normal -1 0 -6.735557292e-16
  outer loop
    vertex   -0.09380024672 -0.0367343016 -0.05197975039
    vertex   -0.09380024672 -0.03799990192 -0.05046972632
    vertex   -0.09380024672 -0.03293740377 -0.04743978381
  endloop
endfacet
facet normal -1 0 -6.735557292e-16
  outer loop
    vertex   -0.09380024672 -0.03799990192 -0.05273982882
    vertex   -0.09380024672 -0.0367343016 -0.05197975039
    vertex   -0.09380024672 -0.03768350184 -0.05311974883
  endloop
endfacet
facet normal -1 0 -6.735557292e-16
  outer loop
    vertex   -0.09380024672 -0.03799990192 -0.00499984622
    vertex   -0.09380024672 -0.01774990186 0.04350021482
    vertex   -0.09380024672 0.01262510102 0.007130175829
  endloop
endfacet
facet normal -1 0 -6.735557292e-16
  outer loop
    vertex   -0.09380024672 -0.03293740377 0.04350021482
    vertex   -0.09380024672 -0.03799990192 0.03138020635
    vertex   -0.09380024672 -0.03799990192 0.04047015309
  endloop
endfacet
facet normal -1 0 -6.735557292e-16
  outer loop
    vertex   -0.09380024672 -0.03768350184 0.04350021482
    vertex   -0.09380024672 -0.03799990192 0.04274013638
    vertex   -0.09380024672 -0.03799990192 0.04331019521
  endloop
endfacet
facet normal -1 0 -6.735557292e-16
  outer loop
    vertex   -0.09380024672 -0.0367343016 0.04350021482
    vertex   -0.09380024672 -0.03799990192 0.04047015309
    vertex   -0.09380024672 -0.03799990192 0.04274013638
  endloop
endfacet
facet normal -1 0 -6.735557292e-16
  outer loop
    vertex   -0.09380024672 -0.037980102 0.04350021482
    vertex   -0.09380024672 -0.03799990192 0.04345014691
    vertex   -0.09380024672 -0.03799990192 0.04349020123
  endloop
endfacet
facet normal -1 0 -6.735557292e-16
  outer loop
    vertex   -0.09380024672 -0.03799990192 0.04349020123
    vertex   -0.09380024672 -0.03799990192 0.04350021482
    vertex   -0.09380024672 -0.03799490258 0.04350021482
  endloop
endfacet
facet normal -1 0 -6.735557292e-16
  outer loop
    vertex   -0.09380024672 -0.03799990192 0.04331019521
    vertex   -0.09380024672 -0.03799990192 0.04345014691
    vertex   -0.09380024672 -0.03792080283 0.04350021482
  endloop
endfacet
facet normal -1 0 -6.735557292e-16
  outer loop
    vertex   -0.09380024672 -0.037980102 0.04350021482
    vertex   -0.09380024672 -0.03792080283 0.04350021482
    vertex   -0.09380024672 -0.03799990192 0.04345014691
  endloop
endfacet
facet normal -1 0 -6.735557292e-16
  outer loop
    vertex   -0.09380024672 -0.03799490258 0.04350021482
    vertex   -0.09380024672 -0.037980102 0.04350021482
    vertex   -0.09380024672 -0.03799990192 0.04349020123
  endloop
endfacet
facet normal -1 0 -6.735557292e-16
  outer loop
    vertex   -0.09380024672 -0.03768350184 0.04350021482
    vertex   -0.09380024672 -0.0367343016 0.04350021482
    vertex   -0.09380024672 -0.03799990192 0.04274013638
  endloop
endfacet
facet normal -1 0 -6.735557292e-16
  outer loop
    vertex   -0.09380024672 -0.03293740377 0.04350021482
    vertex   -0.09380024672 -0.01774990186 0.04350021482
    vertex   -0.09380024672 -0.03799990192 0.03138020635
  endloop
endfacet
facet normal -1 0 -6.735557292e-16
  outer loop
    vertex   -0.09380024672 0.04300010204 0.04350021482
    vertex   -0.09380024672 0.01262510102 0.007130175829
    vertex   -0.09380024672 -0.01774990186 0.04350021482
  endloop
endfacet
facet normal -1 0 -6.735557292e-16
  outer loop
    vertex   -0.09380024672 -0.0367343016 0.04350021482
    vertex   -0.09380024672 -0.03293740377 0.04350021482
    vertex   -0.09380024672 -0.03799990192 0.04047015309
  endloop
endfacet
facet normal -1 0 -6.735557292e-16
  outer loop
    vertex   -0.09380024672 -0.03792080283 0.04350021482
    vertex   -0.09380024672 -0.03768350184 0.04350021482
    vertex   -0.09380024672 -0.03799990192 0.04331019521
  endloop
endfacet
facet normal -1 0 -6.735557292e-16
  outer loop
    vertex   -0.09380024672 -0.01774990186 0.04350021482
    vertex   -0.09380024672 -0.03799990192 -0.00499984622
    vertex   -0.09380024672 -0.03799990192 0.03138020635
  endloop
endfacet
endsolid